Coordinates
version=1
nRows=38
nColumns=38
inDegrees=no

Units are S.I. units (second, meters, Newtons, ...)
If the header above contains a line with 'inDegrees', this indicates whether rotational values are in degrees (yes) or radians (no).

endheader
time	pelvis_tilt	pelvis_list	pelvis_rotation	pelvis_tx	pelvis_ty	pelvis_tz	hip_flexion_r	hip_adduction_r	hip_rotation_r	knee_angle_r	ankle_angle_r	subtalar_angle_r	mtp_angle_r	hip_flexion_l	hip_adduction_l	hip_rotation_l	knee_angle_l	ankle_angle_l	subtalar_angle_l	mtp_angle_l	lumbar_extension	lumbar_bending	lumbar_rotation	arm_flex_r	arm_add_r	arm_rot_r	elbow_flex_r	pro_sup_r	wrist_flex_r	wrist_dev_r	arm_flex_l	arm_add_l	arm_rot_l	elbow_flex_l	pro_sup_l	wrist_flex_l	wrist_dev_l
20.48	2.98118	1.39948	-1.24458	0.647803	-0.216829	0.951656	-0.227404	0.026598	-0.0254353	0.166617	-0.250313	0	0	-0.170245	-0.126425	-0.0611696	0.238367	-0.220495	0	0	-0.382934	0.0379989	0.0559879	0.169426	-0.656857	-0.0872257	1.80455	1.5708	0	0	0.514294	-0.300045	0.386323	1.63284	1.5708	0	0
20.49	2.97935	1.39874	-1.24364	0.648067	-0.216718	0.951643	-0.228517	0.0273002	-0.0265506	0.165801	-0.250646	0	0	-0.171146	-0.126979	-0.0600143	0.238046	-0.220381	0	0	-0.382982	0.0378177	0.0560063	0.172487	-0.655234	-0.0851134	1.80201	1.5708	0	0	0.517433	-0.299468	0.385874	1.62807	1.5708	0	0
20.5	2.97783	1.39803	-1.24296	0.648348	-0.216579	0.951613	-0.229755	0.0278925	-0.0276679	0.164748	-0.251	0	0	-0.172016	-0.127505	-0.0589436	0.237908	-0.220019	0	0	-0.382869	0.0375137	0.0558594	0.175736	-0.653208	-0.0829672	1.79918	1.5708	0	0	0.520646	-0.298873	0.385698	1.62308	1.5708	0	0
20.51	2.97608	1.39713	-1.24201	0.648632	-0.216443	0.951595	-0.231158	0.0284458	-0.0287012	0.163776	-0.25125	0	0	-0.17302	-0.128127	-0.057598	0.237801	-0.219601	0	0	-0.382826	0.0372978	0.0556763	0.178931	-0.651337	-0.0811015	1.79611	1.5708	0	0	0.524029	-0.298282	0.385864	1.61794	1.5708	0	0
20.52	2.97411	1.39603	-1.24084	0.648924	-0.216318	0.951605	-0.232648	0.0292546	-0.0297869	0.163101	-0.251418	0	0	-0.174249	-0.128845	-0.0560568	0.237445	-0.21933	0	0	-0.382811	0.0371777	0.0556313	0.182071	-0.649308	-0.0795105	1.79254	1.5708	0	0	0.527709	-0.297781	0.386616	1.61238	1.5708	0	0
20.53	2.97204	1.39484	-1.23967	0.649228	-0.216197	0.951632	-0.233993	0.0304271	-0.0312388	0.163052	-0.251302	0	0	-0.175693	-0.129667	-0.0542999	0.236684	-0.219092	0	0	-0.382785	0.0372149	0.0558903	0.185261	-0.647196	-0.0782151	1.78863	1.5708	0	0	0.531911	-0.297432	0.388353	1.6062	1.5708	0	0
20.54	2.96979	1.39357	-1.2384	0.649541	-0.216105	0.951664	-0.23514	0.03146	-0.0329432	0.163496	-0.251079	0	0	-0.177204	-0.130539	-0.0522296	0.23593	-0.219068	0	0	-0.38272	0.0373245	0.0565537	0.188329	-0.645172	-0.0772395	1.7844	1.5708	0	0	0.537317	-0.29758	0.39197	1.59915	1.5708	0	0
20.55	2.96659	1.39256	-1.23625	0.649888	-0.216015	0.951676	-0.235809	0.0322286	-0.0345568	0.164041	-0.251088	0	0	-0.178303	-0.131567	-0.0502755	0.235568	-0.219064	0	0	-0.382269	0.0374437	0.0574255	0.191154	-0.643098	-0.0764622	1.77997	1.5708	0	0	0.5436	-0.298317	0.396951	1.5918	1.5708	0	0
20.56	2.96317	1.3916	-1.23415	0.650273	-0.215934	0.951686	-0.236179	0.0326876	-0.0359941	0.164669	-0.251406	0	0	-0.179441	-0.132568	-0.048474	0.234984	-0.219073	0	0	-0.381739	0.0375322	0.0587051	0.193809	-0.641239	-0.0759297	1.77558	1.5708	0	0	0.55084	-0.299438	0.403075	1.5842	1.5708	0	0
20.57	2.95977	1.39024	-1.23246	0.650723	-0.21586	0.951726	-0.2366	0.0336043	-0.0372759	0.165793	-0.251647	0	0	-0.181256	-0.133715	-0.0473687	0.234042	-0.219215	0	0	-0.381738	0.0378025	0.0605189	0.196639	-0.640774	-0.0745339	1.77073	1.5708	0	0	0.558447	-0.30064	0.409399	1.57645	1.5708	0	0
20.58	2.9558	1.38929	-1.23043	0.651218	-0.21572	0.951769	-0.236366	0.0348056	-0.0385306	0.167306	-0.251691	0	0	-0.182887	-0.134835	-0.0467255	0.232829	-0.21945	0	0	-0.381056	0.037794	0.0620685	0.200271	-0.637796	-0.0735775	1.76653	1.5708	0	0	0.565354	-0.301767	0.414996	1.56855	1.5708	0	0
20.59	2.95175	1.38806	-1.22855	0.65172	-0.215606	0.951824	-0.236023	0.0360974	-0.0397484	0.169573	-0.251381	0	0	-0.184969	-0.136035	-0.0465557	0.231415	-0.219387	0	0	-0.380895	0.0382941	0.0637964	0.204589	-0.636499	-0.0709872	1.76189	1.5708	0	0	0.571607	-0.302574	0.419241	1.56091	1.5708	0	0
20.6	2.94761	1.38677	-1.22654	0.652163	-0.215582	0.951885	-0.235287	0.0370764	-0.041794	0.172565	-0.251086	0	0	-0.187065	-0.137088	-0.045769	0.229778	-0.219182	0	0	-0.381009	0.0389756	0.0649875	0.210102	-0.635426	-0.0672011	1.75722	1.5708	0	0	0.576899	-0.302979	0.421555	1.55382	1.5708	0	0
20.61	2.94329	1.38561	-1.22461	0.652625	-0.21558	0.951935	-0.234147	0.0379068	-0.0434179	0.176141	-0.250753	0	0	-0.189016	-0.138043	-0.0451434	0.228497	-0.21921	0	0	-0.381018	0.0395677	0.0658291	0.216537	-0.634034	-0.0623793	1.7525	1.5708	0	0	0.58087	-0.302989	0.421892	1.54729	1.5708	0	0
20.62	2.93869	1.38477	-1.22274	0.653168	-0.215505	0.951967	-0.2328	0.0388056	-0.0437807	0.17973	-0.250033	0	0	-0.190781	-0.139026	-0.0456785	0.227391	-0.219184	0	0	-0.380515	0.0399798	0.0665799	0.22357	-0.632239	-0.0565394	1.74721	1.5708	0	0	0.583821	-0.303022	0.421152	1.54101	1.5708	0	0
20.63	2.93385	1.3844	-1.22071	0.653748	-0.215382	0.951958	-0.231347	0.0397709	-0.0424882	0.182627	-0.249278	0	0	-0.192092	-0.139995	-0.0467118	0.226342	-0.219106	0	0	-0.379381	0.0403122	0.0672728	0.230714	-0.630227	-0.0499475	1.74174	1.5708	0	0	0.586228	-0.303279	0.420029	1.53498	1.5708	0	0
20.64	2.92999	1.38396	-1.2191	0.654285	-0.215269	0.951983	-0.230222	0.0405366	-0.0417349	0.185325	-0.249153	0	0	-0.193443	-0.140929	-0.0467973	0.22503	-0.219236	0	0	-0.378345	0.040588	0.0674846	0.237798	-0.628139	-0.0431337	1.73607	1.5708	0	0	0.588158	-0.303451	0.418396	1.52927	1.5708	0	0
20.65	2.92695	1.38314	-1.21752	0.654787	-0.215172	0.952068	-0.22989	0.041406	-0.0420865	0.187222	-0.249252	0	0	-0.195085	-0.142056	-0.0454977	0.223107	-0.219846	0	0	-0.377723	0.0409526	0.0670404	0.244734	-0.625708	-0.0364719	1.73032	1.5708	0	0	0.58947	-0.303019	0.415975	1.5237	1.5708	0	0
20.66	2.9248	1.3824	-1.21644	0.655337	-0.215076	0.952143	-0.229684	0.0424369	-0.0429786	0.188732	-0.249155	0	0	-0.196524	-0.143184	-0.0434507	0.221393	-0.220785	0	0	-0.37708	0.0410777	0.066411	0.251308	-0.623128	-0.0300623	1.72475	1.5708	0	0	0.590847	-0.302621	0.413534	1.51814	1.5708	0	0
20.67	2.92292	1.38171	-1.21634	0.655954	-0.214987	0.952182	-0.229326	0.0433244	-0.0429645	0.190306	-0.248758	0	0	-0.198106	-0.14411	-0.0422044	0.219777	-0.221439	0	0	-0.37637	0.0409402	0.0666398	0.257767	-0.620635	-0.0239552	1.71927	1.5708	0	0	0.592535	-0.302279	0.411618	1.51247	1.5708	0	0
20.68	2.92124	1.38098	-1.21704	0.656594	-0.21493	0.952203	-0.228793	0.0440299	-0.042389	0.192253	-0.248147	0	0	-0.199949	-0.144767	-0.0415239	0.218154	-0.221739	0	0	-0.37572	0.0406817	0.0677024	0.264092	-0.618336	-0.0182838	1.71399	1.5708	0	0	0.594507	-0.301887	0.410112	1.50681	1.5708	0	0
20.69	2.91983	1.38036	-1.2177	0.657254	-0.214847	0.95221	-0.228412	0.0447058	-0.0425359	0.193818	-0.247585	0	0	-0.201699	-0.145416	-0.0407347	0.216552	-0.221909	0	0	-0.374894	0.0402851	0.0687688	0.26985	-0.616194	-0.0129595	1.70901	1.5708	0	0	0.59678	-0.301532	0.409107	1.50106	1.5708	0	0
20.7	2.96219	1.36075	-1.2585	0.658361	-0.215568	0.952918	-0.251913	0.0447656	-0.0505764	0.19114	-0.246012	0	0	-0.225164	-0.145695	-0.0409903	0.214214	-0.221973	0	0	-0.399562	0.0339116	0.0636923	0.285282	-0.613374	-0.0041316	1.70339	1.5708	0	0	0.602079	-0.289635	0.443908	1.4489	1.5708	0	0
20.71	2.96264	1.35906	-1.26019	0.659106	-0.215463	0.952978	-0.253679	0.0457748	-0.0515677	0.190576	-0.246525	0	0	-0.228079	-0.146706	-0.0408266	0.212679	-0.222509	0	0	-0.400201	0.0332468	0.0657521	0.288631	-0.611178	-0.00238047	1.6998	1.5708	0	0	0.6074	-0.290008	0.447019	1.44286	1.5708	0	0
20.72	2.96154	1.35821	-1.26084	0.659873	-0.215401	0.953003	-0.254104	0.0466164	-0.0512719	0.190861	-0.246469	0	0	-0.229931	-0.147583	-0.0410921	0.211301	-0.222883	0	0	-0.399849	0.0327375	0.0675245	0.293324	-0.608928	0.000977674	1.69499	1.5708	0	0	0.611729	-0.290181	0.448488	1.4367	1.5708	0	0
20.73	2.96024	1.35782	-1.26116	0.66066	-0.215327	0.953007	-0.253967	0.0473824	-0.051082	0.191522	-0.246628	0	0	-0.231143	-0.14839	-0.0412714	0.210098	-0.22306	0	0	-0.398929	0.0322942	0.0689235	0.29839	-0.606799	0.00502703	1.68976	1.5708	0	0	0.615599	-0.289681	0.449241	1.42994	1.5708	0	0
20.74	2.95835	1.3575	-1.26059	0.661463	-0.215242	0.953011	-0.253773	0.0484924	-0.0512076	0.192095	-0.246719	0	0	-0.23208	-0.149409	-0.0411357	0.209141	-0.223325	0	0	-0.397922	0.0318808	0.069888	0.303577	-0.604731	0.00934015	1.68438	1.5708	0	0	0.618838	-0.289518	0.449724	1.42401	1.5708	0	0
20.75	2.95616	1.35697	-1.25962	0.66229	-0.215174	0.953013	-0.253791	0.0499238	-0.0512079	0.192561	-0.246456	0	0	-0.233163	-0.15062	-0.0407329	0.208232	-0.223685	0	0	-0.397293	0.0313855	0.0704683	0.309049	-0.602837	0.0139956	1.67902	1.5708	0	0	0.621899	-0.290542	0.45049	1.41941	1.5708	0	0
20.76	2.9549	1.35634	-1.25937	0.663119	-0.21514	0.952996	-0.254124	0.0507182	-0.0506375	0.192669	-0.246176	0	0	-0.234274	-0.151628	-0.0398398	0.207238	-0.223982	0	0	-0.396979	0.030581	0.0706514	0.314779	-0.601224	0.0189157	1.67353	1.5708	0	0	0.625298	-0.29277	0.452224	1.41577	1.5708	0	0
20.77	2.95403	1.35569	-1.25933	0.663979	-0.215129	0.95298	-0.254536	0.051656	-0.0496915	0.192856	-0.245601	0	0	-0.235264	-0.152644	-0.0386099	0.206685	-0.224055	0	0	-0.396693	0.0299615	0.0708002	0.320536	-0.599607	0.0239142	1.66794	1.5708	0	0	0.62923	-0.294737	0.454534	1.41149	1.5708	0	0
20.78	2.9531	1.35507	-1.25907	0.664859	-0.215103	0.952979	-0.254934	0.0527912	-0.0491886	0.193244	-0.245216	0	0	-0.236143	-0.153738	-0.0372344	0.206246	-0.224194	0	0	-0.396222	0.029593	0.0710096	0.326091	-0.598117	0.0287953	1.66258	1.5708	0	0	0.6332	-0.296262	0.456984	1.40673	1.5708	0	0
20.79	2.95143	1.35422	-1.25795	0.665753	-0.215102	0.953015	-0.255467	0.0541331	-0.0499127	0.193602	-0.245096	0	0	-0.237124	-0.155128	-0.0361135	0.205529	-0.224309	0	0	-0.395994	0.0294931	0.0711693	0.3317	-0.596729	0.0335596	1.65748	1.5708	0	0	0.636808	-0.297319	0.459104	1.40221	1.5708	0	0
20.8	2.9506	1.3537	-1.25789	0.666703	-0.215121	0.952993	-0.255426	0.055229	-0.0503862	0.194425	-0.244556	0	0	-0.237768	-0.156218	-0.0351506	0.205052	-0.224262	0	0	-0.395607	0.0288679	0.0712917	0.337086	-0.595008	0.0378025	1.65271	1.5708	0	0	0.640111	-0.29872	0.461107	1.39855	1.5708	0	0
20.81	2.95002	1.3533	-1.25792	0.667674	-0.215172	0.952963	-0.25517	0.056285	-0.0507017	0.195321	-0.244035	0	0	-0.238042	-0.157309	-0.0339192	0.20522	-0.224215	0	0	-0.395211	0.0282232	0.0711897	0.342358	-0.593115	0.0418974	1.64792	1.5708	0	0	0.643281	-0.300231	0.463077	1.39521	1.5708	0	0
20.82	2.94967	1.35238	-1.25835	0.668673	-0.215288	0.952977	-0.255359	0.0574202	-0.0505988	0.196268	-0.243412	0	0	-0.23871	-0.158559	-0.0334429	0.205789	-0.224114	0	0	-0.395243	0.0280985	0.0707788	0.349	-0.592062	0.0483819	1.642	1.5708	0	0	0.646134	-0.301882	0.464372	1.39169	1.5708	0	0
20.83	2.94933	1.35146	-1.25893	0.669726	-0.21538	0.953	-0.255617	0.0586049	-0.0506841	0.197041	-0.243042	0	0	-0.239332	-0.159893	-0.0338834	0.206459	-0.223917	0	0	-0.394883	0.0279485	0.0700119	0.356433	-0.590316	0.0556985	1.63572	1.5708	0	0	0.648553	-0.304009	0.465298	1.38805	1.5708	0	0
20.84	2.94917	1.3512	-1.25938	0.670813	-0.215397	0.952993	-0.255492	0.0598619	-0.0514417	0.197326	-0.242239	0	0	-0.239221	-0.161085	-0.033979	0.207185	-0.223679	0	0	-0.394159	0.0273317	0.0696519	0.362077	-0.588155	0.0607632	1.63078	1.5708	0	0	0.651261	-0.305939	0.466718	1.38455	1.5708	0	0
20.85	2.94873	1.3507	-1.26	0.671907	-0.215496	0.952972	-0.255273	0.0612543	-0.0516893	0.198156	-0.241156	0	0	-0.239253	-0.162226	-0.0345728	0.208109	-0.223205	0	0	-0.393882	0.0268696	0.0699506	0.367636	-0.58651	0.0655866	1.62579	1.5708	0	0	0.654597	-0.307347	0.468105	1.38035	1.5708	0	0
